<svg xmlns="http://www.w3.org/2000/svg" width="12.618" height="14" viewBox="0 0 12.618 14">
  <path id="Path_7752" data-name="Path 7752" d="M914.265,495.037c.366-.161.692-.287,1-.444a2.194,2.194,0,0,0,.371-3.855,1.652,1.652,0,0,0-1.9-.143,15.618,15.618,0,0,0-1.436.946c.213-1.365.474-2.782-1.245-3.443l-.086-.028a1.8,1.8,0,0,0-1.1,0l-.086.028c-1.537.711-1.8,1.343-1.419,3.513-.275-.222-.494-.411-.726-.584-1.552-1.156-2.874-.744-3.524,1.1-.031.089-.077.172-.117.257v.81a3.551,3.551,0,0,0,2.53,1.842,3.794,3.794,0,0,0-2.53,1.745v.926c.172.316.321.649.522.945a1.889,1.889,0,0,0,2.75.642c.363-.207.688-.481,1.092-.767-.294,1.507-.343,2.877,1.422,3.461h1.273c1.714-.657,1.461-2.056,1.235-3.487.931.72,1.8,1.549,3,.917a2.3,2.3,0,0,0,1.313-2.326C916.478,495.752,915.294,495.525,914.265,495.037Zm1.536,3.045c-.51.914-1.2,1.2-1.992.759a6.121,6.121,0,0,1-1.226-.947,15.157,15.157,0,0,1-1.026-1.2l-.417.234c.226.771.449,1.52.662,2.271a2.1,2.1,0,0,1,.062.457c.077,1.434-.745,2.067-2.125,1.651-.515-.155-.914-.494-.88-1.013a23.045,23.045,0,0,1,.4-2.592c.044-.242.191-.464.248-.705a1.15,1.15,0,0,0-.058-.408c-.147.053-.341.064-.434.167-.31.341-.549.751-.88,1.068a6.512,6.512,0,0,1-1.31,1.025c-.795.438-1.483.135-1.987-.778-.457-.827-.343-1.493.51-1.882a30.666,30.666,0,0,1,3.011-1.029v-.382c-.552-.1-1.086-.175-1.6-.312a5.639,5.639,0,0,1-1.236-.468,1.6,1.6,0,0,1-.069-2.861,1.092,1.092,0,0,1,1.307.043c.663.515,1.267,1.109,1.883,1.683.153.142.238.356.391.5a1.157,1.157,0,0,0,.393.151,1.108,1.108,0,0,0,.085-.4c-.036-.205-.148-.4-.2-.6a20.721,20.721,0,0,1-.507-2.066,1.375,1.375,0,0,1,.549-1.488,1.95,1.95,0,0,1,1.886-.107,1.1,1.1,0,0,1,.619,1.151,9.214,9.214,0,0,1-.226,1.592c-.12.5-.33.982-.518,1.521l.272.1c.7-.6,1.363-1.242,2.1-1.792,1.109-.83,1.989-.527,2.455.78a1.2,1.2,0,0,1-.612,1.66,18.938,18.938,0,0,1-2.942.963c-.2.3-.156.479.355.583a11.761,11.761,0,0,1,2.572.784C916.149,496.578,916.26,497.261,915.8,498.083Z" transform="translate(-904 -487.985)" fill="#b0a06c"/>
</svg>
