<svg xmlns="http://www.w3.org/2000/svg" xmlns:xlink="http://www.w3.org/1999/xlink" width="48" height="30.315" viewBox="0 0 48 30.315">
  <defs>
    <clipPath id="clip-path">
      <rect id="Rectangle_1608" data-name="Rectangle 1608" width="45.333" height="27.097" transform="translate(0)" fill="#2e2e2e"/>
    </clipPath>
  </defs>
  <g id="Group_9094" data-name="Group 9094" transform="translate(-2686 -1047)">
    <rect id="Rectangle_1609" data-name="Rectangle 1609" width="48" height="30.316" transform="translate(2686 1047)" fill="#b0a06c"/>
    <g id="Mask_Group_18" data-name="Mask Group 18" transform="translate(2687.333 1048.333)" clip-path="url(#clip-path)">
      <g id="Group_8149" data-name="Group 8149" transform="translate(-1.747)">
        <path id="Path_6155" data-name="Path 6155" d="M-79.994,0h48.806V27.1H-79.994Z" transform="translate(79.994)" fill="#006"/>
        <path id="Path_6156" data-name="Path 6156" d="M-79.994,0V3.027L-36.645,27.1h5.457V24.07L-74.537,0Zm48.806,0V3.027L-74.537,27.1h-5.457V24.07L-36.645,0Z" transform="translate(79.994)" fill="#fff"/>
        <path id="Path_6157" data-name="Path 6157" d="M-59.657,0V27.1h8.136V0ZM-79.994,9.034v9.034h48.806V9.034Z" transform="translate(79.994)" fill="#fff"/>
        <path id="Path_6158" data-name="Path 6158" d="M-79.994,10.839v5.419h48.806V10.839ZM-58.031,0V27.1h4.881V0ZM-79.994,27.1l16.267-9.034h3.637L-76.357,27.1Zm0-27.1,16.267,9.034h-3.637L-79.994,2.022Zm28.9,9.034L-34.824,0h3.637L-47.455,9.034ZM-31.188,27.1l-16.267-9.034h3.637l12.631,7.012Z" transform="translate(79.994)" fill="#c00"/>
      </g>
    </g>
  </g>
</svg>
