<svg xmlns="http://www.w3.org/2000/svg" width="160" height="160" viewBox="0 0 160 160">
  <g id="Group_8866" data-name="Group 8866" transform="translate(-870.629 -450.313)">
    <path id="Path_7005" data-name="Path 7005" d="M950.589,610.313l-79.96-79.9,80.082-80.1,79.918,80.1ZM881.93,529.948l69.458,69.632,68.828-68.715-69.529-69.643Z" transform="translate(0 0)" fill="#b0a06c"/>
    <path id="Path_7006" data-name="Path 7006" d="M912.495,520.457l17.156,18.726L946.5,520.5v34.729H940.07V537.717l-10.58,11.727-10.319-11.6v17.331h-6.676Z" transform="translate(-4.676 -7.818)" fill="#b0a06c"/>
    <path id="Path_7007" data-name="Path 7007" d="M1005.151,527.806l-4.8,3.494c-7.245-5.255-12.792-5.331-16.756-.3-3.6,4.567-3.108,11.954,1.054,15.832,4.386,4.086,10.278,3.385,15.9-2.146l4.912,3.368c-3.248,6.276-9.85,8.994-17.841,7.492a17.187,17.187,0,0,1-13.674-15.48c-.679-8.371,3.686-15.478,11.188-18.219C992.92,519,1000.086,521.014,1005.151,527.806Z" transform="translate(-11.531 -7.833)" fill="#b0a06c"/>
    <path id="Path_7008" data-name="Path 7008" d="M956.686,539.428l5.338-5.706,6.157,6.11-6.038,5.469Z" transform="translate(-9.612 -9.296)" fill="#b0a06c"/>
  </g>
</svg>
